<?xml version="1.0" standalone="no"?>
<!DOCTYPE svg PUBLIC "-//W3C//DTD SVG 20010904//EN"
 "http://www.w3.org/TR/2001/REC-SVG-20010904/DTD/svg10.dtd">
<svg version="1.0" xmlns="http://www.w3.org/2000/svg"
 width="256.000000pt" height="256.000000pt" viewBox="0 0 256.000000 256.000000"
 preserveAspectRatio="xMidYMid meet">

<g transform="translate(0.000000,256.000000) scale(0.100000,-0.100000)"
fill="#F0DFBF" stroke="none">
<path d="M1260 2480 c0 -69 -2 -80 -17 -81 -91 -2 -248 -34 -347 -70 -301
-109 -556 -364 -665 -665 -35 -97 -67 -250 -70 -341 -1 -9 -24 -13 -81 -13
l-80 0 0 -30 0 -30 80 0 c44 0 80 -3 80 -7 0 -47 27 -206 47 -273 104 -362
402 -659 765 -764 47 -14 115 -28 150 -32 34 -4 70 -8 78 -10 8 -1 23 -3 33
-3 15 -1 17 -12 17 -81 l0 -80 30 0 30 0 0 80 c0 69 2 80 18 81 9 0 24 2 32 3
8 2 44 6 78 10 98 11 227 52 337 106 308 153 536 448 599 777 13 69 24 144 25
181 1 8 24 12 81 12 l80 0 0 30 0 30 -80 0 c-57 0 -80 4 -81 13 0 6 -2 26 -4
42 -2 17 -7 55 -10 85 -18 142 -109 364 -200 485 -62 82 -164 185 -244 245
-131 99 -351 189 -503 206 -34 4 -70 8 -78 10 -8 1 -25 3 -37 3 -22 1 -23 5
-23 81 0 73 -2 80 -20 80 -18 0 -20 -7 -20 -80z m0 -455 l0 -315 -22 -4 c-13
-3 -52 -10 -88 -16 -36 -7 -90 -22 -120 -34 l-54 -22 -159 159 c-116 116 -166
173 -183 211 -40 86 -33 105 69 170 154 99 348 163 500 165 l57 1 0 -315z
m220 299 c151 -28 311 -98 428 -185 42 -32 52 -45 52 -70 0 -61 -31 -103 -197
-271 -166 -167 -166 -167 -193 -153 -40 21 -169 55 -206 55 -68 0 -64 -20 -64
326 l0 314 49 0 c27 0 86 -7 131 -16z m-900 -379 c14 -8 99 -88 189 -178 l164
-165 -222 -146 -222 -146 -135 0 -134 0 0 44 c0 63 27 196 56 279 34 95 118
247 165 298 35 39 41 41 76 34 20 -4 49 -13 63 -20z m1550 -26 c52 -65 121
-195 153 -286 30 -83 57 -216 57 -279 l0 -44 -135 0 -135 0 -216 147 -215 147
158 159 c153 154 223 207 275 207 10 0 36 -23 58 -51z m-716 -373 c105 -51
161 -144 161 -266 0 -123 -56 -214 -163 -267 -47 -23 -70 -28 -132 -28 -62 0
-85 5 -132 28 -160 79 -215 278 -118 430 80 126 246 170 384 103z m-710 -443
l217 -147 -158 -159 c-160 -161 -208 -196 -270 -197 -27 0 -38 8 -72 53 -112
149 -201 394 -201 553 l0 44 134 0 134 0 216 -147z m1636 100 c-1 -158 -87
-394 -202 -550 -67 -92 -106 -74 -335 153 l-159 159 210 142 211 142 138 0
137 1 0 -47z m-1234 -327 c50 -12 117 -24 147 -26 4 0 7 -142 7 -315 l0 -315
-52 0 c-162 1 -404 88 -555 201 -96 72 -77 115 145 341 l164 166 43 -19 c23
-10 69 -25 101 -33z m671 -118 c164 -165 203 -216 203 -265 -1 -21 -96 -95
-192 -147 -129 -71 -320 -126 -439 -126 l-49 0 0 315 0 314 38 6 c96 16 141
28 192 49 30 13 60 24 65 25 6 0 88 -77 182 -171z"/>
<path d="M1198 1440 c-120 -64 -131 -223 -21 -307 31 -24 45 -28 103 -28 58 0
72 4 103 28 72 55 97 149 58 225 -47 92 -155 128 -243 82z"/>
</g>
</svg>
